<svg xmlns="http://www.w3.org/2000/svg" xmlns:xlink="http://www.w3.org/1999/xlink" preserveAspectRatio="xMidYMid" width="15.89" height="15.719" viewBox="0 0 31.781 31.438">
  <defs>
    <style>
      .cls-1 {
        fill: #9b9b9b;
        fill-rule: evenodd;
      }
    </style>
  </defs>
  <path d="M30.898,5.090 L20.118,15.871 L30.550,26.303 C31.722,27.475 31.722,29.375 30.550,30.546 C29.379,31.718 27.479,31.718 26.308,30.546 L15.875,20.113 L5.442,30.546 C4.271,31.718 2.371,31.718 1.200,30.546 C0.028,29.375 0.028,27.475 1.200,26.303 L11.632,15.871 L0.852,5.090 C-0.320,3.919 -0.320,2.019 0.852,0.847 C2.024,-0.324 3.923,-0.324 5.095,0.847 L15.875,11.628 L26.655,0.847 C27.827,-0.324 29.726,-0.324 30.898,0.847 C32.070,2.019 32.070,3.919 30.898,5.090 Z" class="cls-1"/>
</svg>
