<svg xmlns="http://www.w3.org/2000/svg" xmlns:xlink="http://www.w3.org/1999/xlink" preserveAspectRatio="xMidYMid" width="14" height="14" viewBox="0 0 28 28">
  <defs>
    <style>
      .cls-1 {
        fill: #222;
        fill-rule: evenodd;
      }
    </style>
  </defs>
  <path d="M0.503,17.728 L10.258,27.483 C10.939,28.164 12.073,28.164 12.754,27.483 L27.824,12.413 C27.921,12.316 27.986,12.154 27.986,12.024 L27.986,1.750 C27.986,0.778 27.208,0.000 26.236,0.000 L15.962,0.000 C15.833,0.000 15.671,0.065 15.573,0.162 L0.503,15.232 C-0.178,15.913 -0.178,17.047 0.503,17.728 ZM19.236,6.125 C19.236,4.667 20.402,3.500 21.861,3.500 C23.319,3.500 24.486,4.667 24.486,6.125 C24.486,7.584 23.319,8.751 21.861,8.751 C20.402,8.751 19.236,7.584 19.236,6.125 Z" class="cls-1"/>
</svg>
