<svg xmlns="http://www.w3.org/2000/svg" xmlns:xlink="http://www.w3.org/1999/xlink" preserveAspectRatio="xMidYMid" width="21" height="17" viewBox="0 0 42 34">
  <defs>
    <style>
      .cls-1 {
        fill: #222;
        fill-rule: evenodd;
      }
    </style>
  </defs>
  <path d="M39.000,20.000 L3.000,20.000 C1.343,20.000 0.000,18.657 0.000,17.000 C0.000,15.343 1.343,14.000 3.000,14.000 L39.000,14.000 C40.657,14.000 42.000,15.343 42.000,17.000 C42.000,18.657 40.657,20.000 39.000,20.000 ZM39.000,6.000 L3.000,6.000 C1.343,6.000 0.000,4.657 0.000,3.000 C0.000,1.343 1.343,0.000 3.000,0.000 L39.000,0.000 C40.657,0.000 42.000,1.343 42.000,3.000 C42.000,4.657 40.657,6.000 39.000,6.000 ZM3.000,28.000 L39.000,28.000 C40.657,28.000 42.000,29.343 42.000,31.000 C42.000,32.657 40.657,34.000 39.000,34.000 L3.000,34.000 C1.343,34.000 0.000,32.657 0.000,31.000 C0.000,29.343 1.343,28.000 3.000,28.000 Z" class="cls-1"/>
</svg>
