<svg xmlns="http://www.w3.org/2000/svg" xmlns:xlink="http://www.w3.org/1999/xlink" preserveAspectRatio="xMidYMid" width="13.531" height="13.487" viewBox="0 0 28.031 27.94">
  <defs>
    <style>
      .cls-1 {
        fill: #222;
        fill-rule: evenodd;
      }
    </style>
  </defs>
  <path d="M0.014,10.472 C0.014,16.263 4.715,20.954 10.517,20.954 C12.592,20.954 14.505,20.372 16.126,19.337 L24.035,27.264 C24.943,28.169 26.434,28.169 27.342,27.264 C27.796,26.811 28.023,26.228 28.023,25.613 C28.023,25.031 27.796,24.416 27.342,23.963 L19.400,16.069 C20.437,14.451 21.021,12.542 21.021,10.472 C21.021,4.680 16.320,-0.011 10.517,-0.011 C4.715,-0.011 0.014,4.680 0.014,10.472 ZM17.520,10.472 C17.520,14.322 14.375,17.460 10.517,17.460 C6.660,17.460 3.515,14.322 3.515,10.472 C3.515,6.621 6.660,3.483 10.517,3.483 C14.375,3.483 17.520,6.621 17.520,10.472 Z" class="cls-1"/>
</svg>
